HIERARCHY
ROOT Hips
{
	OFFSET 0.000000 0.000000 0.000000
	CHANNELS 6 Xposition Yposition Zposition Zrotation Yrotation Xrotation 
	JOINT LHipJoint
	{
		OFFSET 0.000000 0.000000 0.000000
		CHANNELS 3 Zrotation Yrotation Xrotation
		JOINT LeftUpLeg
		{
			OFFSET 1.363060 -1.794630 0.839290
			CHANNELS 3 Zrotation Yrotation Xrotation
			JOINT LeftLeg
			{
				OFFSET 2.448110 -6.726130 0.000000
				CHANNELS 3 Zrotation Yrotation Xrotation
				JOINT LeftFoot
				{
					OFFSET 2.562200 -7.039590 0.000000
					CHANNELS 3 Zrotation Yrotation Xrotation
					JOINT LeftToeBase
					{
						OFFSET 0.157640 -0.433110 2.322550
						CHANNELS 3 Zrotation Yrotation Xrotation
						End Site
						{
							OFFSET 0.000000 0.000000 0.000000
						}
					}
				}
			}
		}
	}
	JOINT RHipJoint
	{
		OFFSET 0.000000 0.000000 0.000000
		CHANNELS 3 Zrotation Yrotation Xrotation
		JOINT RightUpLeg
		{
			OFFSET -1.305520 -1.794630 0.839290
			CHANNELS 3 Zrotation Yrotation Xrotation
			JOINT RightLeg
			{
				OFFSET -2.542530 -6.985550 0.000000
				CHANNELS 3 Zrotation Yrotation Xrotation
				JOINT RightFoot
				{
					OFFSET -2.568260 -7.056230 0.000000
					CHANNELS 3 Zrotation Yrotation Xrotation
					JOINT RightToeBase
					{
						OFFSET -0.164730 -0.452590 2.363150
						CHANNELS 3 Zrotation Yrotation Xrotation
						End Site
						{
							OFFSET 0.000000 0.000000 0.000000
						}
					}
				}
			}
		}
	}
}
MOTION
Frames: 16
Frame Time: 0.008333
8.184857 16.011484 -2.063998 -145.559327 78.315882 -122.514114 -13.617883 -0.424581 -3.767769 -8.609496 7.660256 -43.781860 3.699644 5.812299 95.315015 3.044433 18.397947 -15.028674 -2.076000 0.000000 -14.710500 8.178541 -1.184413 1.190019 6.490987 8.330493 -33.210933 1.593938 -2.671931 45.428149 -1.778828 -4.360942 -19.248156 1.117601 -0.000000 -69.469000
8.396370 16.131369 -2.155787 -147.046838 78.256825 -123.930620 -13.343013 -0.624612 -3.605946 -9.020111 7.370839 -45.089121 3.331914 5.644913 93.020233 3.101700 18.547649 -15.560027 -2.258400 -0.000001 -14.337200 8.286134 -1.276554 1.174630 6.049188 8.145264 -31.731740 1.538736 -2.566793 43.748008 -1.619289 -4.261072 -16.924194 0.822700 0.000000 -71.914700
8.608610 16.261155 -2.254909 -148.582486 78.173881 -125.425095 -13.067054 -0.808094 -3.445056 -9.407456 7.084498 -46.198000 2.931772 5.457258 90.325342 3.164943 18.689448 -16.038112 -2.427199 -0.000000 -13.935800 8.393135 -1.373781 1.111440 5.623977 7.832474 -30.212821 1.472464 -2.471784 41.978350 -1.444757 -4.122421 -14.210306 0.500700 -0.000000 -74.348500
8.821698 16.399231 -2.360836 -150.186441 78.060993 -127.027148 -12.791558 -0.971087 -3.286255 -9.773405 6.804051 -47.075379 2.505617 5.246149 87.218703 3.228947 18.790625 -16.437467 -2.568500 0.000000 -13.560100 8.499967 -1.473313 0.999601 5.212583 7.384368 -28.634800 1.396253 -2.385340 40.106677 -1.276030 -4.004667 -11.155592 0.173100 0.000000 -76.588800
9.036083 16.543364 -2.472825 -151.878642 77.911629 -128.758340 -12.517684 -1.110624 -3.128133 -10.123159 6.528590 -47.702106 2.061391 5.008236 83.695128 3.288430 18.821548 -16.726829 -2.665900 0.000000 -13.275800 8.606581 -1.571860 0.843052 4.809964 6.804144 -26.987513 1.312101 -2.304873 38.130806 -1.134152 -3.969563 -7.840661 -0.147800 0.000000 -78.387500
9.252256 16.690867 -2.589863 -153.667503 77.719042 -130.622307 -12.246411 -1.225028 -2.967172 -10.463133 6.254371 -48.075763 1.608734 4.740942 79.760322 3.338704 18.759944 -16.872210 -2.702700 0.000000 -13.146500 8.712481 -1.665972 0.649932 4.410248 6.106438 -25.273284 1.222557 -2.227420 36.065459 -1.036671 -4.073561 -4.373020 -0.464400 -0.000001 -79.495400
9.470839 16.838585 -2.710960 -155.544938 77.476118 -132.598570 -11.978450 -1.313690 -2.797863 -10.800709 5.974611 -48.211448 1.158233 4.442773 75.432179 3.376245 18.593795 -16.841907 -2.664700 -0.000001 -13.218300 8.817199 -1.752655 0.431619 4.008363 5.314044 -23.509286 1.130495 -2.150117 33.942890 -0.994681 -4.360657 -0.879945 -0.793200 0.000000 -79.749900
9.692314 16.983187 -2.835097 -157.482367 77.177283 -134.642041 -11.714764 -1.376868 -2.613663 -11.141112 5.681662 -48.139680 0.720295 4.113958 70.742486 3.399137 18.323008 -16.614841 -2.544300 0.000000 -13.499100 8.920183 -1.829767 0.200966 3.602057 4.456539 -21.726097 1.038777 -2.071148 31.818480 -1.010991 -4.853369 2.492932 -1.158200 -0.000000 -78.997600
9.917081 17.121450 -2.961455 -159.434539 76.818525 -136.688700 -11.456359 -1.415427 -2.407571 -11.488194 5.366540 -47.901605 0.303594 3.755829 65.733282 3.407483 17.960224 -16.186179 -2.343100 -0.000000 -13.955700 9.021181 -1.896512 -0.029550 3.192008 3.565183 -19.963891 0.950087 -1.990240 29.763191 -1.080136 -5.547272 5.595868 -1.579399 -0.000000 -77.178500
10.145273 17.250292 -3.089570 -161.323499 76.396824 -138.641503 -11.205973 -1.431782 -2.172813 -11.834881 5.023893 -47.547856 -0.085975 3.371118 60.458437 3.402667 17.525025 -15.572889 -2.072100 0.000000 -14.517800 9.117966 -1.954389 -0.248424 2.789737 2.676950 -18.267682 0.867191 -1.908686 27.857644 -1.190508 -6.412143 8.285514 -2.061800 0.000000 -74.288899
10.376777 17.367397 -3.219084 -163.103995 75.913646 -140.443338 -10.965137 -1.427646 -1.904709 -12.179155 4.645339 -47.116809 -0.446569 2.961052 54.969713 3.387814 17.046602 -14.811164 -1.750000 -0.000000 -15.108400 9.210710 -2.005254 -0.449918 2.399218 1.814950 -16.672872 0.792412 -1.829892 26.174537 -1.325994 -7.385769 10.454288 -2.585400 0.000000 -70.572100
10.611136 17.470817 -3.350195 -164.686972 75.370221 -141.995651 -10.738694 -1.408459 -1.599629 -12.498657 4.231551 -46.651947 -0.779313 2.526860 49.326788 3.365453 16.548934 -13.954984 -1.399700 0.000001 -15.655900 9.294697 -2.053653 -0.628787 2.042670 1.016764 -15.207843 0.728087 -1.757543 24.773722 -1.471269 -8.399653 12.040519 -3.112800 -0.000000 -66.353999
10.847745 17.559338 -3.483205 -166.021221 74.772432 -143.246651 -10.530808 -1.380453 -1.256910 -12.773642 3.784610 -46.179837 -1.087688 2.066898 43.583624 3.337784 16.053896 -13.065921 -1.044600 0.000000 -16.117400 9.366521 -2.103574 -0.784403 1.734869 0.311496 -13.883776 0.675703 -1.696035 23.695083 -1.612346 -9.375936 13.041489 -3.595401 0.000000 -62.088300
11.085672 17.632332 -3.618316 -167.094979 74.130978 -144.195822 -10.345381 -1.351250 -0.880424 -12.986715 3.310476 -45.704289 -1.375163 1.577202 37.787530 3.305851 15.579021 -12.202321 -0.705899 -0.000000 -16.484100 9.423856 -2.157461 -0.921860 1.481322 -0.283909 -12.690516 0.635879 -1.650147 22.960314 -1.737487 -10.236780 13.503503 -3.983600 0.000000 -58.221300
11.324033 17.689474 -3.756214 -167.857386 73.455582 -144.804409 -10.189237 -1.332964 -0.475756 -13.105405 2.831938 -45.240469 -1.641683 1.055606 32.001039 3.267368 15.123533 -11.410576 -0.399300 0.000000 -16.780700 9.460357 -2.219434 -1.042206 1.304801 -0.739090 -11.617478 0.608653 -1.622803 22.575965 -1.840120 -10.936321 13.508651 -4.248900 0.000000 -55.100101
11.561914 17.730854 -3.897345 -168.302788 72.760588 -145.090756 -10.068179 -1.336781 -0.055838 -13.111366 2.382443 -44.787577 -1.883291 0.504012 26.296333 3.217051 14.674872 -10.714443 -0.135200 0.000001 -17.067100 9.472677 -2.291532 -1.151058 1.213568 -1.048970 -10.640159 0.593620 -1.616819 22.537690 -1.914965 -11.436557 13.149070 -4.375200 -0.000000 -52.913299
